<?xml version="1.0" ?><svg height="24px" version="1.1" viewBox="0 0 24 24" width="24px" xmlns="http://www.w3.org/2000/svg" xmlns:sketch="http://www.bohemiancoding.com/sketch/ns" xmlns:xlink="http://www.w3.org/1999/xlink"><title/><desc/><defs/><g fill="none" fill-rule="evenodd" id="miu" stroke="none" stroke-width="1"><g id="Artboard-1" transform="translate(-647.000000, -479.000000)"><g id="slice" transform="translate(215.000000, 119.000000)"/><path d="M648,487 L648,498 L670,498 L670,487 L648,487 Z M649,485 L649,486 L669,486 L669,485 L649,485 Z M650,483 L650,484 L668,484 L668,483 L650,483 Z M649,488 L649,497 L669,497 L669,488 L649,488 Z M659.126874,489 L659.126874,489.665922 C659.39415,489.708958 659.612725,489.797294 659.782603,489.930932 C659.952482,490.06457 660.114431,490.269554 660.268455,490.545891 L659.60593,490.916225 C659.406606,490.553817 659.146128,490.372615 658.824491,490.372615 C658.625166,490.372615 658.45982,490.431506 658.328447,490.549288 C658.197074,490.667071 658.131388,490.814297 658.131388,490.990971 C658.131388,491.15179 658.184616,491.285426 658.291074,491.391884 C658.395266,491.496076 658.605913,491.61952 658.92302,491.762218 C659.197092,491.886796 659.423593,492.004011 659.602533,492.113866 C659.781472,492.223721 659.91624,492.32961 660.006843,492.431538 C660.262794,492.707874 660.390767,493.041965 660.390767,493.433819 C660.390767,493.818878 660.275251,494.158631 660.044216,494.453087 C659.815445,494.745279 659.509668,494.942336 659.126874,495.044263 L659.126874,495.747559 L658.532301,495.747559 L658.532301,495.064649 C658.08835,494.992167 657.74973,494.839278 657.516429,494.605978 C657.283129,494.372677 657.110988,494.012539 657,493.525553 L657.747464,493.369265 C657.849391,493.713553 657.973967,493.959308 658.121196,494.106536 C658.275219,494.246969 658.480203,494.317185 658.736154,494.317185 C658.98531,494.317185 659.193692,494.236777 659.361306,494.075958 C659.526655,493.917404 659.609328,493.71242 659.609328,493.460999 C659.609328,493.236759 659.540245,493.05669 659.402076,492.920787 C659.33186,492.8551 659.228235,492.780921 659.0912,492.698246 C658.954164,492.615572 658.779191,492.525538 658.566276,492.42814 C658.126856,492.231081 657.838066,492.049879 657.699898,491.88453 C657.480188,491.63764 657.370334,491.342055 657.370334,490.997767 C657.370334,490.834683 657.396382,490.682927 657.448478,490.542493 C657.500574,490.40206 657.575886,490.274653 657.674416,490.160268 C657.772946,490.045882 657.894691,489.946788 658.039654,489.862981 C658.184617,489.779174 658.348831,489.713488 658.532301,489.665922 L658.532301,489 L659.126874,489 Z" fill="#000000" id="business-money-cash-salary-stack-outline-stroke"/></g></g></svg>